<?xml version="1.0" encoding="UTF-8"?>
<svg version="1.1" xmlns="http://www.w3.org/2000/svg" width="687" height="296">
<path d="M0 0 C226.71 0 453.42 0 687 0 C687 97.68 687 195.36 687 296 C460.29 296 233.58 296 0 296 C0 198.32 0 100.64 0 0 Z " fill="#ECECEC" transform="translate(0,0)"/>
<path d="M0 0 C13.20189924 8.70433592 23.43921265 21.39425442 26.97265625 36.94140625 C27.19953125 38.19953125 27.42640625 39.45765625 27.66015625 40.75390625 C28.58828125 40.58890625 29.51640625 40.42390625 30.47265625 40.25390625 C43.01367535 38.60179595 55.27654789 40.34071812 65.66015625 48.06640625 C67.02555794 49.25984946 68.36079666 50.48887933 69.66015625 51.75390625 C70.294375 52.36105469 70.92859375 52.96820313 71.58203125 53.59375 C80.80079395 63.22617513 83.27152224 74.56617 83 87.5390625 C82.38616559 98.74854474 76.58736142 108.11221193 68.6328125 115.68359375 C57.26891714 125.25967917 46.11326063 126.45452552 31.91015625 126.06640625 C26.54765625 125.96328125 21.18515625 125.86015625 15.66015625 125.75390625 C15.33015625 109.58390625 15.00015625 93.41390625 14.66015625 76.75390625 C5.91073915 72.56317931 5.91073915 72.56317931 -2.84106445 68.37744141 C-3.92991943 67.85456543 -5.01877441 67.33168945 -6.140625 66.79296875 C-7.25606689 66.25881348 -8.37150879 65.7246582 -9.52075195 65.17431641 C-12.33984375 63.75390625 -12.33984375 63.75390625 -15.33984375 61.75390625 C-15.6774541 58.70950349 -15.82901818 55.85909385 -15.8515625 52.80859375 C-15.8695137 51.92358185 -15.8874649 51.03856995 -15.90596008 50.1267395 C-15.9602336 47.29417721 -15.99401294 44.46178499 -16.02734375 41.62890625 C-16.06050183 39.71091374 -16.09499006 37.79294372 -16.13085938 35.875 C-16.21596968 31.16809119 -16.28269912 26.46123431 -16.33984375 21.75390625 C-18.11029053 22.60154541 -18.11029053 22.60154541 -19.91650391 23.46630859 C-24.3093438 25.56832978 -28.70438611 27.66571021 -33.10009766 29.76171875 C-34.99978754 30.66833741 -36.89888338 31.5762019 -38.79736328 32.48535156 C-41.5313117 33.79432425 -44.26738757 35.09875459 -47.00390625 36.40234375 C-48.26988144 37.0102626 -48.26988144 37.0102626 -49.56143188 37.63046265 C-50.36180878 38.01070587 -51.16218567 38.3909491 -51.98681641 38.78271484 C-52.68408844 39.11580658 -53.38136047 39.44889832 -54.09976196 39.79208374 C-56.78173103 40.94363911 -59.57088473 41.83091991 -62.33984375 42.75390625 C-62.33984375 53.97390625 -62.33984375 65.19390625 -62.33984375 76.75390625 C-73.27734375 81.69140625 -73.27734375 81.69140625 -76.73022461 83.24584961 C-77.62104736 83.64940674 -78.51187012 84.05296387 -79.4296875 84.46875 C-80.80435181 85.08931274 -80.80435181 85.08931274 -82.20678711 85.72241211 C-84.27280504 86.57728531 -84.27280504 86.57728531 -85.33984375 87.75390625 C-85.50001541 90.56367143 -85.59934909 93.35164221 -85.65625 96.1640625 C-85.6770311 97.00609726 -85.69781219 97.84813202 -85.71922302 98.71568298 C-85.78481187 101.41583804 -85.84364651 104.11609342 -85.90234375 106.81640625 C-85.94552012 108.64258866 -85.98913411 110.46876079 -86.03320312 112.29492188 C-86.14050269 116.78114617 -86.24174341 121.26747175 -86.33984375 125.75390625 C-90.75599112 125.93058839 -95.17121153 126.03555487 -99.58984375 126.12890625 C-100.82476562 126.17917969 -102.0596875 126.22945312 -103.33203125 126.28125 C-116.18106349 126.48412946 -125.03565656 121.82888582 -134.21484375 113.046875 C-143.1772768 103.37601434 -145.7869167 91.87799793 -145.609375 78.93359375 C-144.66825345 67.83108741 -139.31588749 57.79849873 -130.80859375 50.6171875 C-119.11275302 42.21520553 -109.53844672 40.3949528 -95.33984375 40.75390625 C-95.31921875 39.72265625 -95.29859375 38.69140625 -95.27734375 37.62890625 C-93.68989005 25.04106914 -84.26453128 12.38522165 -74.7421875 4.5078125 C-51.39333495 -12.53874814 -25.49499388 -14.63669433 0 0 Z " fill="#ECEDED" transform="translate(201.33984375,87.24609375)"/>
<path d="M0 0 C1.05445313 0.3403125 2.10890625 0.680625 3.1953125 1.03125 C18.98332637 6.55518866 33.64278249 17.30910432 42 32 C42.73816823 33.88005314 43.47622808 35.76015234 44.21020508 37.6418457 C45.53669632 40.86765917 46.79281346 43.24484874 49 46 C52.79622528 47.05400005 56.02125561 46.99947491 59.953125 46.90234375 C71.91266175 46.76106668 83.7750944 55.02794356 92.01953125 62.9375 C103.11179488 74.92391124 107.67002198 88.42504641 107.34375 104.625 C106.59874718 118.5317194 99.87438039 132.29298199 90 142 C79.2023848 151.67733283 64.96641339 156.54400443 50.6171875 156.29296875 C49.78195557 156.28994751 48.94672363 156.28692627 48.08618164 156.28381348 C45.01565904 156.26831425 41.94531489 156.22643307 38.875 156.1875 C31.98625 156.125625 25.0975 156.06375 18 156 C18 137.52 18 119.04 18 100 C16.35 99.67 14.7 99.34 13 99 C7.72 96.36 2.44 93.72 -3 91 C-3 112.45 -3 133.9 -3 156 C-6.3 156 -9.6 156 -13 156 C-13 122.67 -13 89.34 -13 55 C-26.33954359 60.90290236 -26.33954359 60.90290236 -39 68 C-39.50843062 70.31753588 -39.50843062 70.31753588 -39.51171875 73.0078125 C-39.56489258 74.48701172 -39.56489258 74.48701172 -39.61914062 75.99609375 C-39.64169922 77.02863281 -39.66425781 78.06117188 -39.6875 79.125 C-39.72166016 80.16527344 -39.75582031 81.20554687 -39.79101562 82.27734375 C-39.87367058 84.85145507 -39.94276155 87.42521829 -40 90 C-37.69 89.01 -35.38 88.02 -33 87 C-33 109.77 -33 132.54 -33 156 C-36.3 156 -39.6 156 -43 156 C-43.33 138.51 -43.66 121.02 -44 103 C-50.27 105.97 -56.54 108.94 -63 112 C-63.33 126.52 -63.66 141.04 -64 156 C-72.78625 156.12375 -72.78625 156.12375 -81.75 156.25 C-84.48361816 156.30462402 -84.48361816 156.30462402 -87.27246094 156.36035156 C-104.11144998 156.55646771 -117.38811134 151.86581987 -129.8984375 140.26171875 C-142.54780688 126.64836397 -144.71038859 110.96168168 -144.12744141 93.17285156 C-143.39211064 80.6356028 -135.06707604 68.27171849 -126 60 C-117.28428285 53.40432216 -106.88094063 47.74778067 -95.6875 47.9375 C-93.8621875 47.9684375 -93.8621875 47.9684375 -92 48 C-91.86078125 46.98486328 -91.86078125 46.98486328 -91.71875 45.94921875 C-89.10172867 35.21089754 -81.7923393 25.53122035 -74 18 C-73.34128906 17.35546875 -72.68257813 16.7109375 -72.00390625 16.046875 C-67.13399573 11.53951315 -61.78318936 8.21496588 -56 5 C-55.10087891 4.44505859 -55.10087891 4.44505859 -54.18359375 3.87890625 C-38.6603574 -5.04608646 -16.61606273 -5.70745645 0 0 Z M-71.5625 31.95703125 C-77.17634691 39.93540607 -83.29321377 48.94449234 -83 59 C-83.89460938 58.96519531 -84.78921875 58.93039063 -85.7109375 58.89453125 C-99.89904155 58.57688713 -108.79994036 62.16534218 -120.25 70.3125 C-128.47190749 78.34754596 -133.14000723 88.64348022 -133.375 100.1875 C-132.84242326 113.82146465 -127.91658644 125.71864774 -117.875 135.125 C-108.13182137 142.74797369 -99.47987606 144.86891565 -87.25 144.375 C-80.69125 144.189375 -80.69125 144.189375 -74 144 C-73.67 131.46 -73.34 118.92 -73 106 C-57 98 -57 98 -50 95 C-50 83.78 -50 72.56 -50 61 C-48.02 60.34 -46.04 59.68 -44 59 C-41.62680316 57.91963985 -39.28622698 56.81668005 -36.94921875 55.6640625 C-36.2909761 55.34343842 -35.63273346 55.02281433 -34.95454407 54.69247437 C-32.86380256 53.67347518 -30.77552188 52.64955882 -28.6875 51.625 C-26.60983386 50.60833678 -24.53163469 49.59279217 -22.45259094 48.57894897 C-21.16491442 47.9507294 -19.87804936 47.32084233 -18.59220886 46.68887329 C-13.77176959 44.33278887 -8.91332702 42.1837009 -4 40 C-3.67 53.2 -3.34 66.4 -3 80 C2.28 82.64 7.56 85.28 13 88 C17.62 90.31 22.24 92.62 27 95 C27.33 111.17 27.66 127.34 28 144 C33.3625 144.103125 38.725 144.20625 44.25 144.3125 C45.91579102 144.35802002 47.58158203 144.40354004 49.29785156 144.45043945 C62.59092655 144.66138193 73.1582432 141.36768374 83 132 C91.13189078 123.62168829 95.44378977 113.47543771 95.5 101.8125 C95.22319873 89.54194315 91.12900738 79.15748038 82.625 70.1875 C74.18796388 62.3740709 63.74442234 57.81536159 52.125 57.6875 C48.02871978 57.84943201 44.03477265 58.28270708 40 59 C39.814375 57.80375 39.62875 56.6075 39.4375 55.375 C35.8760175 39.83620305 25.75976791 27.05975413 12.53125 18.45703125 C2.81825483 12.86606335 -7.73985156 8.73390167 -19 8 C-20.17755859 7.88591797 -20.17755859 7.88591797 -21.37890625 7.76953125 C-39.84166 6.75146584 -60.17892734 17.82458451 -71.5625 31.95703125 Z " fill="#1F4263" transform="translate(189,69)"/>
<path d="M0 0 C15 0 15 0 19.61328125 4.1015625 C20.89695049 5.90779617 22.12894593 7.75163763 23.3125 9.625 C23.9727417 10.57818115 24.6329834 11.5313623 25.31323242 12.51342773 C26.63321774 14.42594767 27.9330148 16.35257906 29.2109375 18.29345703 C31.23430822 21.35446792 33.36177758 24.32368 35.5222168 27.28857422 C36.72512083 28.94236811 37.90454668 30.61316869 39.08203125 32.28515625 C40.6828757 34.55111733 42.33536138 36.78048184 44 39 C44.33 26.13 44.66 13.26 45 0 C49.62 0 54.24 0 59 0 C59 21.45 59 42.9 59 65 C46 65 46 65 41.984375 61.484375 C40.86327221 59.93648593 39.78608644 58.35603764 38.75 56.75 C38.16919678 55.92894775 37.58839355 55.10789551 36.98999023 54.26196289 C35.82966944 52.61832269 34.6858589 50.96288463 33.56005859 49.29541016 C31.49574925 46.25806485 29.29184779 43.35571248 27.0625 40.4375 C26.43472656 39.59058594 25.80695313 38.74367187 25.16015625 37.87109375 C22.15519842 33.87716245 19.06855225 29.94528147 16 26 C15.67 38.87 15.34 51.74 15 65 C10.05 65 5.1 65 0 65 C0 43.55 0 22.1 0 0 Z " fill="#1A3854" transform="translate(324,92)"/>
<path d="M0 0 C0.7518457 0.00684814 1.50369141 0.01369629 2.27832031 0.02075195 C9.72107086 0.23572538 14.84054325 1.97013749 20.5 6.875 C21.221875 7.720625 21.94375 8.56625 22.6875 9.4375 C23.409375 10.2625 24.13125 11.0875 24.875 11.9375 C29.30360097 18.04591513 29.42583913 24.11791582 28.6875 31.4375 C26.68017304 39.19554742 23.11296643 45.55423383 16.125 49.75 C8.26601193 53.60804869 -1.89953906 53.93217567 -10.33984375 51.6015625 C-17.10083454 48.49713221 -22.59601326 43.57556231 -25.47265625 36.640625 C-27.42518712 29.19376307 -27.85719918 20.35208262 -24.25 13.375 C-18.4139379 4.62090685 -10.52021225 -0.14617903 0 0 Z " fill="#183551" transform="translate(425.3125,104.5625)"/>
<path d="M0 0 C4.62 0 9.24 0 14 0 C14.04898438 2.16820313 14.09796875 4.33640625 14.1484375 6.5703125 C14.20254802 8.68528762 14.2598157 10.80015553 14.31738281 12.91503906 C14.35551206 14.37752189 14.39039214 15.84009338 14.421875 17.30273438 C14.46787711 19.41308132 14.52580941 21.52282634 14.5859375 23.6328125 C14.6173584 24.90012207 14.6487793 26.16743164 14.68115234 27.47314453 C14.99507564 30.94553039 15.75562599 33.75589514 17 37 C23.0165066 38.12932105 23.0165066 38.12932105 28.875 36.875 C32.29124307 33.86066788 33.83969206 31.23150171 34.43237305 26.6784668 C34.45855713 25.44781494 34.48474121 24.21716309 34.51171875 22.94921875 C34.52966995 22.29041214 34.54762115 21.63160553 34.56611633 20.95283508 C34.61996656 18.86445369 34.65403108 16.7762974 34.6875 14.6875 C34.7206957 13.2649428 34.75518744 11.84241521 34.79101562 10.41992188 C34.87810216 6.94658683 34.93837718 3.47425201 35 0 C39.62 0 44.24 0 49 0 C49 16.83 49 33.66 49 51 C44.38 51 39.76 51 35 51 C34.505 48.03 34.505 48.03 34 45 C33.0925 45.78375 32.185 46.5675 31.25 47.375 C26.00819286 51.90201525 21.83645227 52.46378229 14.9765625 52.296875 C10.64679916 51.86503509 8.14584168 50.98617884 5 48 C-1.84761061 39.3086158 -0.56819685 28.79006341 -0.3125 18.375 C-0.28737794 16.58987509 -0.26457169 14.80471601 -0.24414062 13.01953125 C-0.1894722 8.67883282 -0.10341948 4.33979939 0 0 Z " fill="#183450" transform="translate(527,105)"/>
<path d="M0 0 C0.66 0.33 1.32 0.66 2 1 C1.52269162 2.4589426 1.04308958 3.91713496 0.5625 5.375 C0.29566406 6.18710938 0.02882813 6.99921875 -0.24609375 7.8359375 C-1 10 -1 10 -2 12 C-2.51046875 11.7834375 -3.0209375 11.566875 -3.546875 11.34375 C-10.11148247 8.82964501 -16.02489733 8.68134049 -23 9 C-23.33 10.32 -23.66 11.64 -24 13 C-20.49210093 15.41168061 -17.31340485 16.46072843 -13.1875 17.4140625 C-8.08966541 18.77955391 -3.55578282 20.74778456 0.5625 24.0625 C2.80628147 28.64761866 2.73458993 32.9974426 2 38 C-0.44080281 42.88160561 -3.30210292 45.66825117 -8.14453125 48.05859375 C-11.7057014 49.23265942 -15.04089281 49.34170557 -18.75 49.3125 C-19.45938721 49.30903564 -20.16877441 49.30557129 -20.8996582 49.30200195 C-28.61802877 49.14228719 -34.61436024 47.32575597 -41 43 C-39.66511872 39.40608886 -38.03977277 36.24509304 -36 33 C-35.41734375 33.28875 -34.8346875 33.5775 -34.234375 33.875 C-27.32643105 37.00312556 -21.52378429 37.46538872 -14 37 C-13.67 35.35 -13.34 33.7 -13 32 C-17.16173653 30.05785628 -21.09058513 28.69410533 -25.5625 27.625 C-31.45349768 26.07133028 -35.16603161 24.08440138 -38.375 18.6875 C-39.62172703 13.32657376 -39.83278282 9.60387801 -37.3125 4.75 C-27.14232725 -7.34425949 -13.5100013 -5.56031459 0 0 Z " fill="#1A3550" transform="translate(632,108)"/>
<path d="M0 0 C4.95 0 9.9 0 15 0 C18.06376242 6.69335484 20.74227904 13.45554773 23.25 20.375 C23.61351562 21.35855469 23.97703125 22.34210938 24.3515625 23.35546875 C24.69445312 24.29777344 25.03734375 25.24007812 25.390625 26.2109375 C25.70032227 27.05962402 26.01001953 27.90831055 26.32910156 28.78271484 C27 31 27 31 27 34 C27.66 34 28.32 34 29 34 C29.11859375 33.14317627 29.2371875 32.28635254 29.359375 31.40356445 C30.01436888 27.92365986 31.01462175 24.85889404 32.25 21.54296875 C32.91515625 19.75149414 32.91515625 19.75149414 33.59375 17.92382812 C34.0578125 16.69083984 34.521875 15.45785156 35 14.1875 C35.46918165 12.92268608 35.93793572 11.65771346 36.40625 10.39257812 C39.86044372 1.13955628 39.86044372 1.13955628 41 0 C43.35313555 -0.07271741 45.70833668 -0.08370868 48.0625 -0.0625 C49.35285156 -0.05347656 50.64320313 -0.04445313 51.97265625 -0.03515625 C52.97167969 -0.02355469 53.97070312 -0.01195313 55 0 C54.29308627 4.90245287 52.40428106 9.20261518 50.5078125 13.73828125 C50.16120575 14.57787888 49.814599 15.4174765 49.45748901 16.28251648 C48.35091122 18.96096068 47.23824118 21.63681929 46.125 24.3125 C45.02002097 26.97791797 43.91634545 29.64386745 42.81393433 32.31034851 C42.12892936 33.96619119 41.44228112 35.62135539 40.75369263 37.27571106 C38.73259509 42.14905159 36.82625855 47.05021201 35 52 C30.38 52 25.76 52 21 52 C17.42065509 45.15219225 14.50798508 38.10244152 11.625 30.9375 C11.14184326 29.74261963 10.65868652 28.54773926 10.16088867 27.31665039 C9.20559719 24.95256465 8.25169691 22.58791619 7.29931641 20.22265625 C6.18897031 17.46869751 5.07160199 14.71781705 3.94921875 11.96875 C3.40344539 10.6250814 2.85785121 9.28133999 2.3125 7.9375 C1.85488281 6.81214844 1.39726562 5.68679687 0.92578125 4.52734375 C0 2 0 2 0 0 Z " fill="#1A3652" transform="translate(461,105)"/>
<path d="M0 0 C1.32 0 2.64 0 4 0 C4 13.2 4 26.4 4 40 C2.35 40 0.7 40 -1 40 C-1.33 39.01 -1.66 38.02 -2 37 C-2.639375 37.495 -3.27875 37.99 -3.9375 38.5 C-8.05164649 40.51509216 -11.49440901 40.72908654 -16 40 C-20.32933744 37.55298319 -22.33300938 34.65002647 -24 30 C-24.70406662 25.21749871 -24.4953967 21.95540793 -22.25 17.625 C-17.66134185 12.2715655 -17.66134185 12.2715655 -13.5625 11.6015625 C-12.716875 11.60929688 -11.87125 11.61703125 -11 11.625 C-10.154375 11.61726562 -9.30875 11.60953125 -8.4375 11.6015625 C-5.56634568 12.0708858 -4.16558973 13.10510899 -2 15 C-1.90912109 13.50146484 -1.90912109 13.50146484 -1.81640625 11.97265625 C-1.73261719 10.68230469 -1.64882813 9.39195312 -1.5625 8.0625 C-1.48128906 6.77472656 -1.40007812 5.48695313 -1.31640625 4.16015625 C-1 1 -1 1 0 0 Z " fill="#729BC9" transform="translate(475,176)"/>
<path d="M0 0 C3.17625 -0.0825 6.3525 -0.165 9.625 -0.25 C10.6145166 -0.28641602 11.6040332 -0.32283203 12.62353516 -0.36035156 C18.42700217 -0.43308553 21.56531373 0.18361134 26 4 C28.59076756 7.41510269 28.35933413 10.83172404 28 15 C26.53269699 19.40190903 24.56622108 22.12900324 20.3828125 24.3203125 C15.09388249 25.82895811 9.44182832 25.27171404 4 25 C4 28.96 4 32.92 4 37 C2.68 37 1.36 37 0 37 C0 24.79 0 12.58 0 0 Z " fill="#6A99C8" transform="translate(511,179)"/>
<path d="M0 0 C4.38253554 2.19126777 7.16669816 4.41674539 9 9 C9.75757439 14.68180789 9.26963497 19.15192056 6 24 C3.12326066 27.21517926 0.84456518 28.30925022 -3.375 28.625 C-7.93906922 28.41927401 -10.42561419 26.81038686 -13.625 23.640625 C-16.35995425 20.37732731 -16.91004709 17.80957617 -17.375 13.625 C-16.82756155 8.33309501 -14.83010596 5.10123277 -11.3125 1.0625 C-7.5764664 -0.65405598 -4.02935017 -0.62958596 0 0 Z " fill="#E9EAEA" transform="translate(430,117)"/>
<path d="M0 0 C1.65 0 3.3 0 5 0 C5 12.54 5 25.08 5 38 C3.68 38 2.36 38 1 38 C0.67 29.09 0.34 20.18 0 11 C-3.45663313 17.24379227 -3.45663313 17.24379227 -6.87988281 23.50585938 C-7.31655273 24.27736328 -7.75322266 25.04886719 -8.203125 25.84375 C-8.64301758 26.63974609 -9.08291016 27.43574219 -9.53613281 28.25585938 C-10.01920898 28.83142578 -10.50228516 29.40699219 -11 30 C-12.32 30 -13.64 30 -15 30 C-16.37207031 28.43945312 -16.37207031 28.43945312 -17.578125 26.28125 C-18.17222168 25.24581055 -18.17222168 25.24581055 -18.77832031 24.18945312 C-19.50680176 22.85817383 -19.50680176 22.85817383 -20.25 21.5 C-21.8175 18.695 -23.385 15.89 -25 13 C-25.33 21.25 -25.66 29.5 -26 38 C-27.65 38 -29.3 38 -31 38 C-31 25.79 -31 13.58 -31 1 C-29.35 1 -27.7 1 -26 1 C-24.36254883 2.8359375 -24.36254883 2.8359375 -22.95703125 5.375 C-22.18262695 6.72851562 -22.18262695 6.72851562 -21.39257812 8.109375 C-20.87115234 9.06328125 -20.34972656 10.0171875 -19.8125 11 C-18.76280671 12.87853214 -17.70713829 14.75374233 -16.64453125 16.625 C-16.18409424 17.46289062 -15.72365723 18.30078125 -15.24926758 19.1640625 C-14.83700928 19.76992187 -14.42475098 20.37578125 -14 21 C-13.34 21 -12.68 21 -12 21 C-10.425598 18.65184066 -8.97768396 16.31670674 -7.5625 13.875 C-7.16740234 13.20984375 -6.77230469 12.5446875 -6.36523438 11.859375 C-4.07920898 7.97959812 -1.9644518 4.0552349 0 0 Z " fill="#6898CA" transform="translate(581,178)"/>
<path d="M0 0 C0 30.36 0 60.72 0 92 C-0.99 91.67 -1.98 91.34 -3 91 C-3 62.95 -3 34.9 -3 6 C-4.32 6.33 -5.64 6.66 -7 7 C-7 35.05 -7 63.1 -7 92 C-7.99 92 -8.98 92 -10 92 C-10.18536122 80.74324631 -10.32750698 69.48685557 -10.41449738 58.2288866 C-10.45624931 53.00124524 -10.51287685 47.77464786 -10.60351562 42.54760742 C-10.69044277 37.50304095 -10.73827409 32.45947841 -10.75901794 27.41422081 C-10.77379996 25.48955157 -10.80266757 23.56493732 -10.84584045 21.64069557 C-10.90393977 18.94390853 -10.91191332 16.25126728 -10.90820312 13.55395508 C-10.93696533 12.75841721 -10.96572754 11.96287933 -10.99536133 11.14323425 C-10.96098392 8.83343147 -10.84880307 7.15202462 -10 5 C-7.19149916 2.40273899 -3.92908772 0 0 0 Z " fill="#46657F" transform="translate(171,133)"/>
<path d="M0 0 C1.23492188 -0.01417969 2.46984375 -0.02835938 3.7421875 -0.04296875 C6.86586712 0.16984545 8.52561596 0.53512774 11.125 2.1875 C10.795 3.8375 10.465 5.4875 10.125 7.1875 C9.50625 6.8575 8.8875 6.5275 8.25 6.1875 C3.92816046 4.80451135 -0.36800835 4.64506561 -4.875 5.1875 C-7.1241908 7.01453227 -7.1241908 7.01453227 -7.125 9.6875 C-7.1241908 12.36046773 -7.1241908 12.36046773 -4.875 14.1875 C-1.7257002 15.26037849 1.43036688 16.23689123 4.62695312 17.15625 C7.62625989 18.08453691 9.81254044 18.87881258 12.06640625 21.10546875 C13.74741961 24.41166846 13.8954373 27.625111 13.125 31.1875 C10.59046343 34.40704645 9.01202695 35.89182435 5.125 37.1875 C-2.09572878 37.88887652 -6.92519195 37.41847461 -12.875 33.1875 C-12.875 31.8675 -12.875 30.5475 -12.875 29.1875 C-10.72010978 29.64926219 -8.95773209 30.14186672 -7.01953125 31.2109375 C-4.60769157 32.30922515 -2.94912947 32.45534521 -0.3125 32.4375 C0.45191406 32.44265625 1.21632813 32.4478125 2.00390625 32.453125 C4.42482762 32.3104561 4.42482762 32.3104561 7.125 30.1875 C7.79185938 27.73077108 7.79185938 27.73077108 7.125 25.1875 C3.78138693 22.82483961 0.44585693 21.53313792 -3.4375 20.3125 C-7.87300933 18.72838952 -10.71601038 17.60828828 -12.875 13.1875 C-13.48724257 8.901802 -13.37955826 6.961156 -11 3.3125 C-7.42234127 -0.26515873 -4.97060078 0.02583472 0 0 Z " fill="#6C96C7" transform="translate(611.875,178.8125)"/>
<path d="M0 0 C3.99578985 1.81692618 5.91755049 3.09236391 7.65625 7.23046875 C6.09375 7.98046875 6.09375 7.98046875 3.65625 8.23046875 C1.9599006 7.21918353 0.26460438 6.20591887 -1.41796875 5.171875 C-4.93396819 3.45310043 -7.46126719 3.73745506 -11.34375 4.23046875 C-15.41091796 6.1489442 -17.00022316 7.62357133 -19.21875 11.54296875 C-20.79218664 16.70034441 -21.05072415 20.33280129 -19.15625 25.41796875 C-17.04161162 28.69930416 -15.80110531 30.35773462 -12.34375 32.23046875 C-6.1562435 33.05981827 -1.5488057 32.85823484 3.65625 29.23046875 C5.96875 29.54296875 5.96875 29.54296875 7.65625 30.23046875 C7.65625 31.22046875 7.65625 32.21046875 7.65625 33.23046875 C1.72127992 37.15905415 -3.1525072 39.58682415 -10.34375 38.23046875 C-16.53319697 36.30335156 -20.75891536 32.57671003 -24.34375 27.23046875 C-26.17841111 21.72648541 -26.4377993 15.35924525 -24.5078125 9.83984375 C-19.24627868 0.58801917 -10.23833417 -3.36158639 0 0 Z " fill="#6391C4" transform="translate(346.34375,178.76953125)"/>
<path d="M0 0 C3.96214722 1.36701389 7.07322252 3.04426073 10 6.0625 C12.02308597 12.00531503 12.04405523 17.83455212 9.3125 23.5 C5.43760619 27.68907439 2.76222687 29.17259515 -2.9375 29.4375 C-7.68281634 29.2750859 -10.43861109 28.30079948 -14 25 C-17.30154375 20.26778729 -17.89608574 15.60808715 -17 10 C-13.44847046 2.76034362 -8.15853194 -1.12531475 0 0 Z M-9.9375 5.8125 C-12.95931573 10.48257886 -12.84366732 14.58917207 -12 20 C-10.82322797 23.32783723 -10.82322797 23.32783723 -8 25 C-4.84338765 25.70081505 -2.15930922 25.68141964 1 25 C4.15491286 22.96245211 5.57388132 21.47277269 6.625 17.83984375 C7.22975786 14.0664067 7.25859177 11.63967437 5.8125 8.0625 C2.86320602 4.70640685 1.00135202 4.1274448 -3.4375 3.5625 C-7.06189087 3.75599677 -7.06189087 3.75599677 -9.9375 5.8125 Z " fill="#6C97C7" transform="translate(396,187)"/>
<path d="M0 0 C2.8125 2.4375 2.8125 2.4375 5 5 C5.33 5.33 5.66 5.66 6 6 C6.4593503 10.27549129 6.44307795 13.95876682 4.75 17.9375 C2.82364453 20.20784752 1.86911204 21.20302443 -1 22 C-7.07216495 21.68041237 -7.07216495 21.68041237 -9.875 19.625 C-12.68008672 15.57320807 -12.62202605 10.72739797 -12 6 C-8.7435583 0.78969329 -6.13573303 -0.72185094 0 0 Z " fill="#EAEBEC" transform="translate(468,191)"/>
<path d="M0 0 C3.58875 -0.0928125 3.58875 -0.0928125 7.25 -0.1875 C8.37003418 -0.22846802 8.37003418 -0.22846802 9.51269531 -0.27026367 C12.54509394 -0.30818904 14.73501354 -0.13249323 17.4609375 1.23046875 C19.40167987 3.46182991 19.48225292 4.57492042 19.375 7.5 C19.35566406 8.66015625 19.35566406 8.66015625 19.3359375 9.84375 C19 12 19 12 17 15 C11.57364835 16.80878388 5.66885438 16.05200784 0 16 C0 10.72 0 5.44 0 0 Z " fill="#E8EAEB" transform="translate(515,183)"/>
<path d="M0 0 C1.32 0 2.64 0 4 0 C4.01981934 0.62567871 4.03963867 1.25135742 4.06005859 1.89599609 C4.15514226 4.72276519 4.26488746 7.54877815 4.375 10.375 C4.4059375 11.35984375 4.436875 12.3446875 4.46875 13.359375 C4.50742187 14.30039063 4.54609375 15.24140625 4.5859375 16.2109375 C4.6173584 17.08024902 4.6487793 17.94956055 4.68115234 18.84521484 C4.81229433 21.20961794 4.81229433 21.20961794 7 23 C11.17687996 23.55166339 13.22620052 23.56173782 16.6796875 21.0546875 C19.82132807 16.91872297 19.77653662 13.75034412 19.8125 8.6875 C19.83763672 7.85154297 19.86277344 7.01558594 19.88867188 6.15429688 C19.9472699 4.10336591 19.97656493 2.05163407 20 0 C21.32 0 22.64 0 24 0 C24 9.24 24 18.48 24 28 C22.35 28 20.7 28 19 28 C18.67 27.34 18.34 26.68 18 26 C17.4328125 26.32226562 16.865625 26.64453125 16.28125 26.9765625 C12.58575233 28.63447413 8.97180565 28.61329352 5 28 C2.49839182 26.12379387 1.38054348 24.76108697 0 22 C-0.08426094 20.3325394 -0.10725143 18.66174813 -0.09765625 16.9921875 C-0.09443359 16.00605469 -0.09121094 15.01992187 -0.08789062 14.00390625 C-0.07951172 12.97136719 -0.07113281 11.93882812 -0.0625 10.875 C-0.05798828 9.83472656 -0.05347656 8.79445312 -0.04882812 7.72265625 C-0.03701952 5.14838038 -0.02055075 2.57421854 0 0 Z " fill="#648FBF" transform="translate(417,188)"/>
<path d="M0 0 C4 1 4 1 10 4 C10 20.83 10 37.66 10 55 C9.01 55 8.02 55 7 55 C7 38.83 7 22.66 7 6 C5.35 5.67 3.7 5.34 2 5 C2 21.5 2 38 2 55 C1.34 55 0.68 55 0 55 C0 36.85 0 18.7 0 0 Z " fill="#385976" transform="translate(192,170)"/>
<path d="M0 0 C0 14.52 0 29.04 0 44 C-0.99 44 -1.98 44 -3 44 C-3.33 31.13 -3.66 18.26 -4 5 C-5.32 5.33 -6.64 5.66 -8 6 C-8 18.54 -8 31.08 -8 44 C-8.99 44 -9.98 44 -11 44 C-11 30.8 -11 17.6 -11 4 C-3 0 -3 0 0 0 Z " fill="#375877" transform="translate(141,181)"/>
<path d="M0 0 C1.65 0 3.3 0 5 0 C6.98 3.63 8.96 7.26 11 11 C10.34 11 9.68 11 9 11 C8.67 11.99 8.34 12.98 8 14 C7.34 13.34 6.68 12.68 6 12 C5.67 20.25 5.34 28.5 5 37 C3.35 37 1.7 37 0 37 C0 24.79 0 12.58 0 0 Z " fill="#80A4CC" transform="translate(550,179)"/>
<path d="M0 0 C6.625 -0.125 6.625 -0.125 10 1 C10.33 18.82 10.66 36.64 11 55 C9.68 55 8.36 55 7 55 C6.98969254 54.44289841 6.97938507 53.88579681 6.96876526 53.31181335 C6.8606998 47.52066308 6.74610173 41.72966839 6.62768555 35.9387207 C6.58433687 33.7766444 6.54266175 31.61453387 6.50268555 29.45239258 C6.44498156 26.34706298 6.38128728 23.24190564 6.31640625 20.13671875 C6.29969376 19.16788254 6.28298126 18.19904633 6.26576233 17.20085144 C6.24581711 16.3001442 6.22587189 15.39943695 6.20532227 14.47143555 C6.18977798 13.67867722 6.1742337 12.88591888 6.15821838 12.06913757 C6.06918774 9.80260226 6.06918774 9.80260226 5 7 C1.99992729 5.29144978 1.99992729 5.29144978 -1 4 C-0.67 2.68 -0.34 1.36 0 0 Z " fill="#F4F4F4" transform="translate(211,157)"/>
<path d="M0 0 C0 30.36 0 60.72 0 92 C-0.66 92 -1.32 92 -2 92 C-2 63.29 -2 34.58 -2 5 C-3.32 4.67 -4.64 4.34 -6 4 C-2.25 0 -2.25 0 0 0 Z " fill="#1F4466" transform="translate(171,133)"/>
<path d="M0 0 C1.32 0 2.64 0 4 0 C4 12.87 4 25.74 4 39 C2.68 39 1.36 39 0 39 C0 26.13 0 13.26 0 0 Z " fill="#6490BF" transform="translate(364,177)"/>
<path d="M0 0 C1.32 0 2.64 0 4 0 C4 9.24 4 18.48 4 28 C2.35 28 0.7 28 -1 28 C-1.33 27.34 -1.66 26.68 -2 26 C-2.99 26.33 -3.98 26.66 -5 27 C-3.94124926 23.59687262 -2.99097846 20.98646769 -1 18 C-0.63648496 15.97457852 -0.63648496 15.97457852 -0.5859375 13.76953125 C-0.52792969 12.56586914 -0.52792969 12.56586914 -0.46875 11.33789062 C-0.4378125 10.50451172 -0.406875 9.67113281 -0.375 8.8125 C-0.31699219 7.5450293 -0.31699219 7.5450293 -0.2578125 6.25195312 C-0.16363721 4.16832476 -0.08073325 2.08419247 0 0 Z " fill="#6D98C8" transform="translate(437,188)"/>
<path d="M0 0 C1.32 0 2.64 0 4 0 C3.67 12.87 3.34 25.74 3 39 C2.01 39 1.02 39 0 39 C-0.3622244 36.06328811 -0.71508387 33.12596806 -1.0625 30.1875 C-1.2181543 28.93743164 -1.2181543 28.93743164 -1.37695312 27.66210938 C-1.47041016 26.85966797 -1.56386719 26.05722656 -1.66015625 25.23046875 C-1.74918213 24.49207764 -1.83820801 23.75368652 -1.92993164 22.99291992 C-2 21 -2 21 -1 18 C-0.34 17.34 0.32 16.68 1 16 C0.67 16 0.34 16 0 16 C0 10.72 0 5.44 0 0 Z " fill="#678EC1" transform="translate(475,176)"/>
<path d="M0 0 C0.598125 0.495 1.19625 0.99 1.8125 1.5 C6.48848477 3.70046342 10.91094898 3.60638768 16 3 C18.85248773 1.5578092 18.85248773 1.5578092 21 0 C23.3125 0.3125 23.3125 0.3125 25 1 C25 1.99 25 2.98 25 4 C19.10498212 7.90213949 14.15499238 10.42344039 7 9 C4.12365391 7.88301893 1.68225526 6.56058488 -1 5 C-0.34 4.67 0.32 4.34 1 4 C0.67 2.68 0.34 1.36 0 0 Z " fill="#79A0CA" transform="translate(329,208)"/>
<path d="M0 0 C0.31384814 5.23080226 0.0065473 8.63565714 -3 13 C-9.13293574 18.06633822 -15.31849898 17.41584066 -23 17 C-23 16.67 -23 16.34 -23 16 C-20.36 16 -17.72 16 -15 16 C-15 15.01 -15 14.02 -15 13 C-17.64 13 -20.28 13 -23 13 C-23 12.67 -23 12.34 -23 12 C-22.09636719 11.93941406 -21.19273437 11.87882813 -20.26171875 11.81640625 C-19.08222656 11.73261719 -17.90273438 11.64882812 -16.6875 11.5625 C-14.92986328 11.44068359 -14.92986328 11.44068359 -13.13671875 11.31640625 C-9.97409042 11.1132629 -9.97409042 11.1132629 -7 10 C-6.19436362 7.89415562 -6.19436362 7.89415562 -5.8125 5.4375 C-5.65394531 4.61121094 -5.49539063 3.78492188 -5.33203125 2.93359375 C-5.16767578 1.97646484 -5.16767578 1.97646484 -5 1 C-1.125 0 -1.125 0 0 0 Z " fill="#81A6CD" transform="translate(539,187)"/>
<path d="M0 0 C0.99 0 1.98 0 3 0 C2.67 18.15 2.34 36.3 2 55 C1.34 55 0.68 55 0 55 C0 36.85 0 18.7 0 0 Z " fill="#11395E" transform="translate(192,170)"/>
<path d="M0 0 C3.25094199 1.04494564 4.56873286 2.59135491 6.25 5.4375 C8 9 8 9 8 12 C9.65 11.34 11.3 10.68 13 10 C13.33 10.99 13.66 11.98 14 13 C12.0625 16.1875 12.0625 16.1875 10 19 C5.60029321 17.4976611 4.30757212 14.59734566 2.1875 10.625 C1.56230469 9.48289063 0.93710937 8.34078125 0.29296875 7.1640625 C-1 4 -1 4 -0.69921875 1.5859375 C-0.46847656 1.06257812 -0.23773437 0.53921875 0 0 Z " fill="#6292C8" transform="translate(559,190)"/>
<path d="M0 0 C0.33 0 0.66 0 1 0 C1.16798051 2.27073652 1.33434113 4.54159293 1.5 6.8125 C1.5928125 8.07707031 1.685625 9.34164062 1.78125 10.64453125 C1.91914781 12.75978517 2 14.88025592 2 17 C0.02 17.99 0.02 17.99 -2 19 C-2.53625 18.34 -3.0725 17.68 -3.625 17 C-5.86560906 14.78486355 -5.86560906 14.78486355 -8.875 14.4375 C-13.16025002 15.208845 -14.87170676 17.02067311 -18 20 C-18.33 19.01 -18.66 18.02 -19 17 C-19.66 17.33 -20.32 17.66 -21 18 C-19.59482014 14.60414866 -18.12138128 12.9372209 -15 11 C-12.5625 10.6015625 -12.5625 10.6015625 -10 10.625 C-9.154375 10.61726562 -8.30875 10.60953125 -7.4375 10.6015625 C-5 11 -5 11 -1 14 C-0.67 9.38 -0.34 4.76 0 0 Z " fill="#739ACB" transform="translate(474,177)"/>
<path d="M0 0 C3.63 1.65 7.26 3.3 11 5 C10 7 10 7 7.625 7.875 C4.68498901 9.13500471 3.68536412 10.33889875 2 13 C-2.75 11.125 -2.75 11.125 -5 10 C-3.62411965 6.29570676 -2.08109119 3.46848532 0 0 Z " fill="#1F3D59" transform="translate(596,141)"/>
<path d="M0 0 C0.66 0 1.32 0 2 0 C2 10.89 2 21.78 2 33 C1.01 32.67 0.02 32.34 -1 32 C-1.02465504 27.60343827 -1.04283842 23.2069128 -1.05493164 18.81030273 C-1.05997121 17.31355082 -1.06680287 15.81680384 -1.07543945 14.32006836 C-1.08752159 12.17300193 -1.09323191 10.02600038 -1.09765625 7.87890625 C-1.10289307 6.5854126 -1.10812988 5.29191895 -1.11352539 3.95922852 C-1 1 -1 1 0 0 Z " fill="#F2F2F1" transform="translate(166,139)"/>
<path d="M0 0 C1.77049689 -0.05410687 3.54146849 -0.09284119 5.3125 -0.125 C6.29863281 -0.14820312 7.28476563 -0.17140625 8.30078125 -0.1953125 C11 0 11 0 14 2 C12.30610638 4.31316656 10.97994403 5.83186747 8.07617188 6.33007812 C5.78970912 6.3934207 3.53516518 6.34853117 1.25 6.25 C0.06083984 6.22292969 0.06083984 6.22292969 -1.15234375 6.1953125 C-3.10208348 6.14833082 -5.05119878 6.07659044 -7 6 C-6.67 4.68 -6.34 3.36 -6 2 C-4.35 2 -2.7 2 -1 2 C-0.67 1.34 -0.34 0.68 0 0 Z " fill="#E5E6E7" transform="translate(236,127)"/>
<path d="M0 0 C1.32904274 3.98712822 0.68593467 7.47669199 0.1875 11.5625 C0.10435547 12.34302734 0.02121094 13.12355469 -0.06445312 13.92773438 C-0.7530348 19.7530348 -0.7530348 19.7530348 -3 22 C-3.33 22 -3.66 22 -4 22 C-4.33 23.65 -4.66 25.3 -5 27 C-5.33 27 -5.66 27 -6 27 C-6.62186578 17.25743614 -5.52217953 8.2832693 0 0 Z " fill="#DBE0E2" transform="translate(62,148)"/>
<path d="M0 0 C1.65 0.33 3.3 0.66 5 1 C3.84168041 3.33168229 2.65227732 5.63546342 1.4375 7.9375 C1.11458984 8.59685547 0.79167969 9.25621094 0.45898438 9.93554688 C-0.56640625 11.83984375 -0.56640625 11.83984375 -3 15 C-6.77734375 15.94140625 -6.77734375 15.94140625 -10 16 C-9.52949219 15.26394531 -9.05898438 14.52789062 -8.57421875 13.76953125 C-7.95160156 12.79371094 -7.32898438 11.81789062 -6.6875 10.8125 C-6.07261719 9.84957031 -5.45773437 8.88664063 -4.82421875 7.89453125 C-3.17876897 5.28365697 -1.57630335 2.6530398 0 0 Z " fill="#74A0CE" transform="translate(577,186)"/>
<path d="M0 0 C0.33 0 0.66 0 1 0 C1 11.88 1 23.76 1 36 C-0.65 36 -2.3 36 -4 36 C-4.495 34.515 -4.495 34.515 -5 33 C-6.32 33.66 -7.64 34.32 -9 35 C-9 34.34 -9 33.68 -9 33 C-9.66 32.67 -10.32 32.34 -11 32 C-10.38125 31.938125 -9.7625 31.87625 -9.125 31.8125 C-6.72238859 31.171081 -6.72238859 31.171081 -5.75 28.4375 C-5.5025 27.633125 -5.255 26.82875 -5 26 C-3.14223235 29.13498292 -2.79859524 31.37471432 -3 35 C-2.01 35 -1.02 35 0 35 C0 23.45 0 11.9 0 0 Z " fill="#7DA0C9" transform="translate(478,180)"/>
<path d="M0 0 C0.33 0 0.66 0 1 0 C1 8.25 1 16.5 1 25 C-0.32 25 -1.64 25 -3 25 C-3 24.34 -3 23.68 -3 23 C-2.34 22.67 -1.68 22.34 -1 22 C-1.33 21.01 -1.66 20.02 -2 19 C-2.12213515 16.13408445 -2.18512182 13.30320488 -2.1875 10.4375 C-2.19974609 9.65697266 -2.21199219 8.87644531 -2.22460938 8.07226562 C-2.22985217 6.04679965 -2.12234328 4.02177448 -2 2 C-1.34 1.34 -0.68 0.68 0 0 Z " fill="#6293C6" transform="translate(553,191)"/>
<path d="M0 0 C4.6959013 -0.32385526 7.16309076 -0.41084636 11.4375 1.6875 C14.22067989 4.19915015 14.79570164 5.3226295 15 9 C13.68 9 12.36 9 11 9 C10.236875 8.195625 9.47375 7.39125 8.6875 6.5625 C5.43812188 3.46425575 3.39766199 3.258686 -1 3 C-0.67 2.01 -0.34 1.02 0 0 Z " fill="#6191C5" transform="translate(523,179)"/>
<path d="M0 0 C0.8971875 0.309375 0.8971875 0.309375 1.8125 0.625 C1.8125 1.615 1.8125 2.605 1.8125 3.625 C-3.3456464 7.24667726 -6.23864653 8.02380692 -12.46484375 6.984375 C-13.03332031 6.86578125 -13.60179687 6.7471875 -14.1875 6.625 C-14.1875 5.965 -14.1875 5.305 -14.1875 4.625 C-13.26517578 4.33496094 -13.26517578 4.33496094 -12.32421875 4.0390625 C-11.51597656 3.77867187 -10.70773437 3.51828125 -9.875 3.25 C-9.07449219 2.99476563 -8.27398437 2.73953125 -7.44921875 2.4765625 C-0.59888329 -0.10266571 -0.59888329 -0.10266571 0 0 Z " fill="#6191C5" transform="translate(352.1875,208.375)"/>
<path d="M0 0 C4.73132555 0.36394812 8.18343542 1.1086632 12 4 C12 4.66 12 5.32 12 6 C11.35675781 5.84660156 10.71351563 5.69320312 10.05078125 5.53515625 C6.10232463 4.84253326 2.1868113 4.64199119 -1.8125 4.4375 C-2.60076172 4.39431641 -3.38902344 4.35113281 -4.20117188 4.30664062 C-6.13394215 4.20121679 -8.06695026 4.10016906 -10 4 C-9.67 3.34 -9.34 2.68 -9 2 C-7.1875 1.62109375 -7.1875 1.62109375 -5 1.4375 C-2.21067942 1.37334592 -2.21067942 1.37334592 0 0 Z " fill="#F2F2F1" transform="translate(184,81)"/>
<path d="M0 0 C1.98 0.99 3.96 1.98 6 3 C6.12886183 10.40239645 5.79725902 17.63959083 5 25 C4.67 25 4.34 25 4 25 C4 18.4 4 11.8 4 5 C2.35 4.67 0.7 4.34 -1 4 C-0.67 2.68 -0.34 1.36 0 0 Z " fill="#2E4F70" transform="translate(195,171)"/>
<path d="M0 0 C0.33 0 0.66 0 1 0 C1.16798051 2.27073652 1.33434113 4.54159293 1.5 6.8125 C1.5928125 8.07707031 1.685625 9.34164062 1.78125 10.64453125 C1.91914781 12.75978517 2 14.88025592 2 17 C0.02 17.99 0.02 17.99 -2 19 C-3.32 17.68 -4.64 16.36 -6 15 C-5.67 14.01 -5.34 13.02 -5 12 C-3.68 12.66 -2.36 13.32 -1 14 C-0.67 9.38 -0.34 4.76 0 0 Z " fill="#88A7CB" transform="translate(474,177)"/>
<path d="M0 0 C5.445 1.485 5.445 1.485 11 3 C10.01 3.33 9.02 3.66 8 4 C8 4.99 8 5.98 8 7 C4.7 6.34 1.4 5.68 -2 5 C-1.01 4.67 -0.02 4.34 1 4 C0.67 2.68 0.34 1.36 0 0 Z " fill="#789FCB" transform="translate(609,194)"/>
<path d="M0 0 C3.96 0 7.92 0 12 0 C9.47671768 2.52328232 8.1655624 3.71399027 5 5 C4.01 5 3.02 5 2 5 C2 4.34 2 3.68 2 3 C1.01 3 0.02 3 -1 3 C-0.67 2.01 -0.34 1.02 0 0 Z " fill="#F5F5F4" transform="translate(121,165)"/>
<path d="M0 0 C0.99 0.99 1.98 1.98 3 3 C1.02 3.99 1.02 3.99 -1 5 C-1.33 12.59 -1.66 20.18 -2 28 C-2.33 28 -2.66 28 -3 28 C-3.0867562 23.70845978 -3.1403089 19.41714332 -3.1875 15.125 C-3.21263672 13.90167969 -3.23777344 12.67835938 -3.26367188 11.41796875 C-3.27333984 10.25136719 -3.28300781 9.08476562 -3.29296875 7.8828125 C-3.3086792 6.80402832 -3.32438965 5.72524414 -3.34057617 4.61376953 C-3.22818604 3.75122559 -3.1157959 2.88868164 -3 2 C-2.01 1.34 -1.02 0.68 0 0 Z " fill="#385978" transform="translate(164,136)"/>
<path d="M0 0 C0.99 0 1.98 0 3 0 C2.67 7.92 2.34 15.84 2 24 C1.67 24 1.34 24 1 24 C0.28586721 15.97875848 -0.14525497 8.05358138 0 0 Z " fill="#1C4063" transform="translate(192,170)"/>
<path d="M0 0 C5.66153846 2.46153846 5.66153846 2.46153846 7.375 5.1875 C7.58125 5.785625 7.7875 6.38375 8 7 C6.4375 7.75 6.4375 7.75 4 8 C1.49713591 6.86915563 -0.67007722 5.47860484 -3 4 C-2.01 3.67 -1.02 3.34 0 3 C0 2.01 0 1.02 0 0 Z " fill="#6D98C9" transform="translate(346,179)"/>
<path d="M0 0 C0.33 0.99 0.66 1.98 1 3 C-2.96 3 -6.92 3 -11 3 C-10.67 2.01 -10.34 1.02 -10 0 C-6.7169902 -1.6415049 -3.57454967 -0.51888624 0 0 Z " fill="#FAF9F9" transform="translate(257,130)"/>
<path d="M0 0 C0.33 0.66 0.66 1.32 1 2 C0.01 3.485 0.01 3.485 -1 5 C-3.875 4.6875 -3.875 4.6875 -7 4 C-7.66 3.01 -8.32 2.02 -9 1 C-6.04335481 -0.4783226 -3.25770263 -0.06032783 0 0 Z " fill="#F6F7F7" transform="translate(85,205)"/>
<path d="M0 0 C0.495 0.53625 0.99 1.0725 1.5 1.625 C-1.94069624 3.91879749 -3.22290301 4.625 -7.5 4.625 C-7.5 3.965 -7.5 3.305 -7.5 2.625 C-8.49 1.965 -9.48 1.305 -10.5 0.625 C-3.11538462 -1.71346154 -3.11538462 -1.71346154 0 0 Z " fill="#7CA1CC" transform="translate(401.5,211.375)"/>
<path d="M0 0 C-0.33 3.63 -0.66 7.26 -1 11 C-1.99 11 -2.98 11 -4 11 C-4.08096803 9.54257537 -4.13917774 8.08387193 -4.1875 6.625 C-4.22230469 5.81289062 -4.25710938 5.00078125 -4.29296875 4.1640625 C-4.19628906 3.44992188 -4.09960938 2.73578125 -4 2 C-1 0 -1 0 0 0 Z " fill="#6591C6" transform="translate(456,193)"/>
<path d="M0 0 C3.3 0.33 6.6 0.66 10 1 C10 1.99 10 2.98 10 4 C6.6868604 5.04127245 5.39801692 5.18574123 2.1875 3.6875 C1.465625 3.130625 0.74375 2.57375 0 2 C0 1.34 0 0.68 0 0 Z " fill="#F3F4F5" transform="translate(259,116)"/>
<path d="M0 0 C3.3 0.66 6.6 1.32 10 2 C9.67 2.99 9.34 3.98 9 5 C5.05272412 5.17942163 2.4019487 5.09350689 -1 3 C-0.67 2.01 -0.34 1.02 0 0 Z " fill="#6391C5" transform="translate(385,211)"/>
<path d="M0 0 C0.33 0 0.66 0 1 0 C1.66 4.29 2.32 8.58 3 13 C1.68 12.67 0.36 12.34 -1 12 C-1.02687279 10.18757948 -1.04633715 8.37504767 -1.0625 6.5625 C-1.07410156 5.55316406 -1.08570313 4.54382813 -1.09765625 3.50390625 C-1 1 -1 1 0 0 Z " fill="#F8F8F8" transform="translate(278,174)"/>
<path d="M0 0 C1.65 0.33 3.3 0.66 5 1 C4.67 3.31 4.34 5.62 4 8 C2.02 8 0.04 8 -2 8 C-1.01 7.67 -0.02 7.34 1 7 C0.67 4.69 0.34 2.38 0 0 Z " fill="#F6F7F6" transform="translate(93,108)"/>
<path d="M0 0 C2.475 0.99 2.475 0.99 5 2 C5 3.32 5 4.64 5 6 C1.25 7.125 1.25 7.125 -1 6 C-1.042721 4.33388095 -1.04063832 2.66617115 -1 1 C-0.67 0.67 -0.34 0.34 0 0 Z " fill="#F3F4F3" transform="translate(197,86)"/>
<path d="M0 0 C2.125 4.625 2.125 4.625 1 8 C1 7.34 1 6.68 1 6 C-0.98 6.99 -0.98 6.99 -3 8 C-3.33 5.69 -3.66 3.38 -4 1 C-2 0 -2 0 0 0 Z " fill="#F2F3F3" transform="translate(49,191)"/>
<path d="M0 0 C0.99 0 1.98 0 3 0 C2.88648483 1.81325551 2.75887039 3.62563357 2.625 5.4375 C2.55539062 6.44683594 2.48578125 7.45617187 2.4140625 8.49609375 C2.27742188 9.32238281 2.14078125 10.14867187 2 11 C1.01 11.495 1.01 11.495 0 12 C0 8.04 0 4.08 0 0 Z " fill="#F5F5F5" transform="translate(277,157)"/>
<path d="M0 0 C0 0.99 0 1.98 0 3 C-3.3 3.33 -6.6 3.66 -10 4 C-7.19291889 -0.21062166 -4.92322234 -1.75829369 0 0 Z " fill="#F5F5F5" transform="translate(93,130)"/>
<path d="M0 0 C2.50298434 2.93828597 3.46930939 5.17902761 4 9 C2.125 8.75 2.125 8.75 0 8 C-1.25 5.9375 -1.25 5.9375 -2 4 C-1.34 4 -0.68 4 0 4 C0 2.68 0 1.36 0 0 Z " fill="#6A97C7" transform="translate(326,203)"/>
<path d="M0 0 C2.475 0.99 2.475 0.99 5 2 C4.1875 3.9375 4.1875 3.9375 3 6 C2.01 6.33 1.02 6.66 0 7 C-0.38133299 5.0085944 -0.71325582 3.00720923 -1 1 C-0.67 0.67 -0.34 0.34 0 0 Z " fill="#F6F7F7" transform="translate(110,84)"/>
<path d="M0 0 C-1.98 0.99 -1.98 0.99 -4 2 C-3.34 2.66 -2.68 3.32 -2 4 C-2.66 4 -3.32 4 -4 4 C-4 4.66 -4 5.32 -4 6 C-5.32 5.34 -6.64 4.68 -8 4 C-8 3.01 -8 2.02 -8 1 C-2.25 -1.125 -2.25 -1.125 0 0 Z " fill="#DBDFE1" transform="translate(262,222)"/>
<path d="M0 0 C0.99 0.33 1.98 0.66 3 1 C1.92598892 3.91517292 1.22189824 5.77810176 -1 8 C-1.66 6.68 -2.32 5.36 -3 4 C-2.01 2.68 -1.02 1.36 0 0 Z " fill="#6496CC" transform="translate(570,200)"/>
<path d="M0 0 C2.76276177 0.52268466 5.3260876 1.10869587 8 2 C8.33 2.99 8.66 3.98 9 5 C4.545 4.01 4.545 4.01 0 3 C0 2.01 0 1.02 0 0 Z " fill="#113252" transform="translate(135,73)"/>
<path d="M0 0 C2.97 0 5.94 0 9 0 C9 0.99 9 1.98 9 3 C5.7 2.67 2.4 2.34 -1 2 C-0.67 1.34 -0.34 0.68 0 0 Z " fill="#5286C1" transform="translate(337,179)"/>
<path d="M0 0 C2.125 0.9375 2.125 0.9375 4 2 C4 2.66 4 3.32 4 4 C1.36 4.33 -1.28 4.66 -4 5 C-2.25 1.125 -2.25 1.125 0 0 Z " fill="#F3F4F3" transform="translate(131,89)"/>
<path d="M0 0 C0.99 0.33 1.98 0.66 3 1 C2.2884375 1.6496875 2.2884375 1.6496875 1.5625 2.3125 C-0.23686957 4.02309613 -0.23686957 4.02309613 -1 7 C-1.99 7 -2.98 7 -4 7 C-4.33 5.68 -4.66 4.36 -5 3 C-2.6875 1.4375 -2.6875 1.4375 0 0 Z " fill="#F6F7F5" transform="translate(262,221)"/>
<path d="M0 0 C2.86724686 0.57344937 3.8614515 0.8614515 6 3 C5.34 3 4.68 3 4 3 C3.67 3.99 3.34 4.98 3 6 C2.01 5.34 1.02 4.68 0 4 C0 2.68 0 1.36 0 0 Z " fill="#7BA0C9" transform="translate(599,208)"/>
<path d="M0 0 C0 0.99 0 1.98 0 3 C-2.375 4.5625 -2.375 4.5625 -5 6 C-5.66 6.66 -6.32 7.32 -7 8 C-7 7.34 -7 6.68 -7 6 C-7.66 5.67 -8.32 5.34 -9 5 C-6.03 3.35 -3.06 1.7 0 0 Z " fill="#264767" transform="translate(266,205)"/>
<path d="M0 0 C1.32 1.32 2.64 2.64 4 4 C1.69 4.66 -0.62 5.32 -3 6 C-3 3 -3 3 -1.5 1.3125 C-0.7575 0.6628125 -0.7575 0.6628125 0 0 Z " fill="#294C71" transform="translate(141,168)"/>
<path d="M0 0 C-0.33 0.99 -0.66 1.98 -1 3 C-3.31 3 -5.62 3 -8 3 C-8 2.34 -8 1.68 -8 1 C-5.07175348 0.02391783 -3.04386724 -0.08226668 0 0 Z " fill="#6591C6" transform="translate(469,213)"/>
<path d="M0 0 C0.99 0 1.98 0 3 0 C2.74438677 2.3431213 2.40729228 4.67843403 2 7 C1.01 7.495 1.01 7.495 0 8 C0 5.36 0 2.72 0 0 Z " fill="#244668" transform="translate(192,170)"/>
<path d="M0 0 C0.66 0.66 1.32 1.32 2 2 C1.96712417 4.72869407 1.43602229 7.2966618 1 10 C0.34 9.67 -0.32 9.34 -1 9 C-1.09765625 2.84765625 -1.09765625 2.84765625 -1 1 C-0.67 0.67 -0.34 0.34 0 0 Z " fill="#2D4459" transform="translate(594,115)"/>
<path d="M0 0 C0.33 1.32 0.66 2.64 1 4 C0.01 4.33 -0.98 4.66 -2 5 C-2 4.34 -2 3.68 -2 3 C-2.66 3 -3.32 3 -4 3 C-4 3.66 -4 4.32 -4 5 C-4.66 4.67 -5.32 4.34 -6 4 C-2.25 0 -2.25 0 0 0 Z " fill="#FAFAF9" transform="translate(125,97)"/>
<path d="M0 0 C1.65 0.33 3.3 0.66 5 1 C5 1.99 5 2.98 5 4 C3.35 4 1.7 4 0 4 C0 2.68 0 1.36 0 0 Z " fill="#E5E5E6" transform="translate(83,223)"/>
<path d="M0 0 C2.0625 0.4375 2.0625 0.4375 4 1 C4 1.99 4 2.98 4 4 C2.02 4.99 2.02 4.99 0 6 C-0.38218767 4.34385343 -0.71395102 2.67542976 -1 1 C-0.67 0.67 -0.34 0.34 0 0 Z " fill="#719ECB" transform="translate(350,208)"/>
<path d="M0 0 C0.99 0.33 1.98 0.66 3 1 C1.02 3.97 1.02 3.97 -1 7 C-1.66 6.01 -2.32 5.02 -3 4 C-2.01 2.68 -1.02 1.36 0 0 Z " fill="#214668" transform="translate(282,202)"/>
<path d="M0 0 C0.33 0.99 0.66 1.98 1 3 C0.01 4.485 0.01 4.485 -1 6 C-2.32 5.34 -3.64 4.68 -5 4 C-3.74458443 1.48916886 -2.49936512 1.12874554 0 0 Z " fill="#294762" transform="translate(557,141)"/>
<path d="M0 0 C2.97 0.495 2.97 0.495 6 1 C6 1.66 6 2.32 6 3 C2.25 4.125 2.25 4.125 0 3 C0 2.01 0 1.02 0 0 Z " fill="#F7F7F7" transform="translate(172,109)"/>
<path d="M0 0 C0.66 0.33 1.32 0.66 2 1 C0.71937515 2.7074998 -0.61767557 4.37373596 -2 6 C-2.66 6 -3.32 6 -4 6 C-3.6875 4.125 -3.6875 4.125 -3 2 C-2.01 1.34 -1.02 0.68 0 0 Z " fill="#294664" transform="translate(447,146)"/>
<path d="M0 0 C2.31 1.65 4.62 3.3 7 5 C5.68 5.33 4.36 5.66 3 6 C1.68 4.35 0.36 2.7 -1 1 C-0.67 0.67 -0.34 0.34 0 0 Z " fill="#345166" transform="translate(415,139)"/>
<path d="M0 0 C0.66 0 1.32 0 2 0 C1.67 1.65 1.34 3.3 1 5 C-0.65 5.33 -2.3 5.66 -4 6 C-2.7260411 3.96166576 -1.38938077 1.96147874 0 0 Z " fill="#E2E3E4" transform="translate(618,140)"/>
<path d="M0 0 C1.65 0 3.3 0 5 0 C4.67 0.99 4.34 1.98 4 3 C1.9375 3.6875 1.9375 3.6875 0 4 C0 2.68 0 1.36 0 0 Z " fill="#F6F7F7" transform="translate(141,125)"/>
<path d="M0 0 C2 1.375 2 1.375 4 3 C4 3.66 4 4.32 4 5 C2.02 5.99 2.02 5.99 0 7 C0 4.69 0 2.38 0 0 Z " fill="#F2F2F2" transform="translate(339,117)"/>
<path d="M0 0 C0.66 0.66 1.32 1.32 2 2 C-1.465 3.485 -1.465 3.485 -5 5 C-5.33 3.68 -5.66 2.36 -6 1 C-3.125 0.375 -3.125 0.375 0 0 Z " fill="#E0E3E6" transform="translate(164,116)"/>
<path d="M0 0 C2.97 0.495 2.97 0.495 6 1 C6.33 1.99 6.66 2.98 7 4 C4.69 3.34 2.38 2.68 0 2 C0 1.34 0 0.68 0 0 Z " fill="#F9F9F7" transform="translate(189,83)"/>
</svg>
